<svg id="visual" viewBox="0 0 900 600" width="900" height="600" xmlns="http://www.w3.org/2000/svg" xmlns:xlink="http://www.w3.org/1999/xlink" version="1.1"><rect x="0" y="0" width="900" height="600" fill="#06021d"></rect><path d="M0 372L15 386.5C30 401 60 430 90 431.5C120 433 150 407 180 414.3C210 421.7 240 462.3 270 478.8C300 495.3 330 487.7 360 468.8C390 450 420 420 450 395.2C480 370.3 510 350.7 540 367C570 383.3 600 435.7 630 439C660 442.3 690 396.7 720 383.5C750 370.3 780 389.7 810 396C840 402.3 870 395.7 885 392.3L900 389L900 601L885 601C870 601 840 601 810 601C780 601 750 601 720 601C690 601 660 601 630 601C600 601 570 601 540 601C510 601 480 601 450 601C420 601 390 601 360 601C330 601 300 601 270 601C240 601 210 601 180 601C150 601 120 601 90 601C60 601 30 601 15 601L0 601Z" fill="#FF4500" stroke-linecap="round" stroke-linejoin="miter"></path></svg>